<svg xmlns="http://www.w3.org/2000/svg" viewBox="0 0 52.3 43.4"><defs><style>.a{fill:#020202;}</style></defs><title>cinema</title><path class="a" d="M5.7,13.6H3.9a.9.9,0,0,1-.9-1V3.5a.9.9,0,0,1,.9-1H5.7a.9.9,0,0,1,.9,1h0v9.1a.9.9,0,0,1-.9,1ZM3.9,3.3c-.1,0-.1.1-.1.2v9.1c0,.1,0,.2.1.2H5.7v-.2h0V3.5a.3.3,0,0,0-.1-.2Z"/><path class="a" d="M20.9,11.2H6.2a.7.7,0,0,1-.4-.5V5.4a.7.7,0,0,1,.4-.5h19c.3,0,.4.2.4.5s-.2.3-.4.3c-2.1,0-3.9,2.2-3.9,4.9h0A.5.5,0,0,1,20.9,11.2ZM6.6,10.4H20.5a6.1,6.1,0,0,1,2.3-4.7H6.6Z"/><path class="a" d="M25.2,13.1a2.4,2.4,0,0,1-2-2.5,2.2,2.2,0,0,1,2-2.4,2.1,2.1,0,0,1,2.1,2.4h0A2.3,2.3,0,0,1,25.2,13.1Zm0-4.1A1.4,1.4,0,0,0,24,10.6c0,.9.6,1.7,1.2,1.7a1.6,1.6,0,0,0,1.3-1.7A1.5,1.5,0,0,0,25.2,9Z"/><path class="a" d="M28.4,14.6H21.8a7,7,0,0,1-1.3-3.9c0-3.1,2.2-5.7,4.7-5.7S30,7.5,30,10.6a7,7,0,0,1-1.3,3.9Zm-6.1-.8h5.9a6.2,6.2,0,0,0,.9-3.2c0-2.7-1.7-4.9-3.9-4.9s-3.9,2.2-3.9,4.9A5.3,5.3,0,0,0,22.3,13.8Z"/><path class="a" d="M37.2,38.4H10.8a2.8,2.8,0,0,1-2.7-2.6V16.5a2.7,2.7,0,0,1,2.6-2.7H37.2a2.7,2.7,0,0,1,2.7,2.7h0V35.6a2.8,2.8,0,0,1-2.7,2.8ZM10.8,14.6a1.9,1.9,0,0,0-1.9,1.8h0V35.6a1.8,1.8,0,0,0,1.8,1.9c0,.1.1.1.1,0H37.2a1.9,1.9,0,0,0,1.9-1.9V16.5a2,2,0,0,0-1.9-1.9Z"/><path class="a" d="M42.2,31.9H39.5a.4.4,0,0,1-.4-.4V20.7a.4.4,0,0,1,.4-.4h2.7a.4.4,0,0,1,.4.4V31.5a.4.4,0,0,1-.4.4Zm-2.3-.8h1.9v-10H39.9Z"/><path class="a" d="M49.4,37h-.3L42,31.9c-.2-.1-.2-.2-.2-.4V20.7c0-.2,0-.3.2-.4l7.1-5.1a.4.4,0,0,1,.5-.1.5.5,0,0,1,.2.4V36.7c0,.1-.1.3-.2.3Zm-6.8-5.7L49,35.9V16.3l-6.4,4.6Z"/><path class="a" d="M28.5,35.3H15.2a2.7,2.7,0,0,1-2.4-2.9V24.9A2.7,2.7,0,0,1,15.2,22H28.5A2.8,2.8,0,0,1,31,24.9v2.2a.5.5,0,0,1-.5.4H29.4v2.1a.4.4,0,0,0,.1.3h1.1a.5.5,0,0,1,.5.3v2.2A2.8,2.8,0,0,1,28.5,35.3ZM15.2,22.8c-.9,0-1.6,1-1.6,2.1v7.5c0,1.2.7,2.1,1.6,2.1H28.5a1.9,1.9,0,0,0,1.7-2.1V30.7h-.8a1.1,1.1,0,0,1-.9-1.1V27.7a.9.9,0,0,1,.9-1h.8V24.9a2,2,0,0,0-1.7-2.1Z"/><path class="a" d="M32.4,30.7H29.5a1.1,1.1,0,0,1-1-1.1h0V27.7a1.1,1.1,0,0,1,1-1h2.9a1.1,1.1,0,0,1,1.1,1h0v1.9a1.1,1.1,0,0,1-1.1,1.1Zm-2.9-3.2a.2.2,0,0,0-.2.2v1.9c0,.2.1.3.2.3h2.9a.3.3,0,0,0,.3-.3V27.7c0-.1-.1-.2-.3-.2Z"/><path class="a" d="M14.6,18.4H12.5a.3.3,0,0,1-.3-.3.5.5,0,0,1,.3-.5h2.1a.5.5,0,0,1,.4.5h0C15,18.3,14.8,18.4,14.6,18.4Z"/><path class="a" d="M19.8,18.4h-2a.5.5,0,0,1-.5-.3.5.5,0,0,1,.5-.5h2c.2.1.4.2.4.5S20,18.4,19.8,18.4Z"/><path class="a" d="M25,18.4H23c-.3,0-.4-.1-.4-.3s.1-.4.4-.5h2a.5.5,0,0,1,.4.5C25.4,18.3,25.3,18.4,25,18.4Z"/><path class="a" d="M30.2,18.4h-2c-.2,0-.4-.1-.4-.3a.5.5,0,0,1,.4-.5h2a.5.5,0,0,1,.5.5A.5.5,0,0,1,30.2,18.4Z"/><path class="a" d="M35.5,18.4H33.4c-.2,0-.4-.1-.4-.3s.2-.4.4-.5h2.1c.2.1.4.2.4.5S35.7,18.4,35.5,18.4Z"/></svg>