<svg xmlns="http://www.w3.org/2000/svg" viewBox="0 0 52.3 43.4"><defs><style>.a{stroke:#000;stroke-miterlimit:10;stroke-width:0.25px;}</style></defs><title>edit</title><path class="a" d="M35.8,22.2H17.1a.2.2,0,0,1-.2-.2V9l.2-.2H35.8L36,9V22A.2.2,0,0,1,35.8,22.2Zm-18.5-.4H35.6V9.1H17.3Z"/><path class="a" d="M23.9,19.4h-.1a.1.1,0,0,1-.1-.1V11.8c0-.1.1-.1.1-.2H24l6,3.7v.2H30l-6,3.7Zm.2-7.3v6.8l5.6-3.4Z"/><path d="M46.5,27.4H5.5c-.2,0-.4-.1-.4-.3V4.5a.4.4,0,0,1,.4-.4h41c.2,0,.3.2.3.4V27.1A.3.3,0,0,1,46.5,27.4ZM5.8,26.7H46.1V4.8H5.8Z"/><path d="M46.5,32.3H5.5a.4.4,0,0,1-.4-.4V27.1a.4.4,0,0,1,.4-.4h41c.2,0,.3.2.3.4v4.8C46.8,32.1,46.7,32.3,46.5,32.3ZM5.8,31.6H46.1V27.4H5.8Z"/><path d="M30.8,36.8H21.1c-.2,0-.3-.2-.3-.4V31.9a.3.3,0,0,1,.3-.3h9.7c.2,0,.4.1.4.3v4.5A.4.4,0,0,1,30.8,36.8Zm-9.3-.7h9V32.3h-9Z"/><path d="M13.8,38.8c-.2,0-.3-.2-.4-.3a.5.5,0,0,1,.3-.5L21,36.1a.4.4,0,0,1,.5.2.5.5,0,0,1-.3.5l-7.3,1.9Z"/><path d="M38.2,38.8h-.1l-7.4-1.9c-.1-.1-.3-.3-.2-.5s.2-.3.4-.2L38.3,38a.4.4,0,0,1,.2.5A.5.5,0,0,1,38.2,38.8Z"/><path d="M43.1,30.9a1.4,1.4,0,1,1,0-2.8,1.4,1.4,0,0,1,0,2.8Zm0-2.1a.7.7,0,1,0,0,1.4.7.7,0,0,0,0-1.4Z"/><path d="M22.3,29.9H19.9c-.2,0-.3-.2-.3-.4a.3.3,0,0,1,.3-.3h2.4a.3.3,0,0,1,.3.3C22.6,29.7,22.5,29.9,22.3,29.9Z"/><path d="M27.2,29.9H24.8a.4.4,0,0,1-.4-.4c0-.2.2-.3.4-.3h2.4a.3.3,0,0,1,.3.3A.4.4,0,0,1,27.2,29.9Z"/><path d="M32,29.9H29.7a.4.4,0,0,1-.4-.4c0-.2.2-.3.4-.3H32c.2,0,.4.1.4.3A.4.4,0,0,1,32,29.9Z"/></svg>