<svg xmlns="http://www.w3.org/2000/svg" viewBox="0 0 52.3 43.4"><title>film</title><path d="M41.9,39.1H9.8a2.3,2.3,0,0,1-2.3-2.3V20.5a2.3,2.3,0,0,1,2.3-2.3H41.9a2.3,2.3,0,0,1,2.3,2.3V36.8A2.3,2.3,0,0,1,41.9,39.1Zm-31.8-.6H41.6a2,2,0,0,0,2-2V20.8a2,2,0,0,0-2-2H10.1a2,2,0,0,0-2,2V36.5A2,2,0,0,0,10.1,38.5Z"/><path d="M7.8,18.8l-.3-.2L5.7,9.7a.4.4,0,0,1,.1-.3H6L41.4,2.2c.2,0,.3.1.4.3l1.7,8.9c.1,0,0,.1,0,.2h-.2L7.9,18.8ZM6.4,9.9l1.7,8.2,34.7-6.9L41.2,2.9Z"/><path d="M34.7,13.4h-.1c-.2-.1-.2-.3-.1-.5L41.2,2.4a.2.2,0,0,1,.4-.1.2.2,0,0,1,.1.4L35,13.3Z"/><path d="M28,14.8h-.2c-.1-.1-.2-.3-.1-.4L34.4,3.7a.4.4,0,0,1,.5-.1.4.4,0,0,1,.1.5L28.3,14.6Z"/><path d="M21.3,16.1h-.2c-.2-.1-.2-.3-.1-.5L27.7,5.1c.1-.2.3-.2.5-.1s.2.3.1.4L21.6,16Z"/><path d="M14.5,17.5a.1.1,0,0,1-.1-.1.2.2,0,0,1-.1-.4L21,6.4a.2.2,0,0,1,.4-.1c.2.1.2.3.1.5L14.8,17.3C14.8,17.4,14.7,17.5,14.5,17.5Z"/><path d="M7.8,18.8H7.6a.4.4,0,0,1-.1-.5L14.2,7.7a.4.4,0,0,1,.5-.1c.2.1.2.3.1.5L8.1,18.7Z"/><path d="M41.5,36.9H10.2a.3.3,0,0,1-.3-.3V20.7a.3.3,0,0,1,.3-.3H41.5c.2,0,.4.1.4.3V36.6C41.9,36.8,41.7,36.9,41.5,36.9Zm-31-.7H41.2V21H10.5Z"/><path d="M34.4,26.3H17.3a.3.3,0,1,1,0-.6H34.4a.3.3,0,0,1,0,.6Z"/><path d="M34.4,31.6H17.3a.3.3,0,0,1,0-.6H34.4a.3.3,0,0,1,0,.6Z"/></svg>