<svg xmlns="http://www.w3.org/2000/svg" viewBox="0 0 52.3 43.4"><title>photo</title><path d="M26.2,31.9a7.8,7.8,0,1,1,7.6-7.8A7.7,7.7,0,0,1,26.2,31.9Zm0-14.8a6.9,6.9,0,0,0-6.9,7,6.9,6.9,0,1,0,13.8,0A6.9,6.9,0,0,0,26.2,17.1Z"/><path d="M14.1,17.6H11.9a1.3,1.3,0,0,1-1.3-1.4v-.9A1.3,1.3,0,0,1,11.9,14h2.2a1.3,1.3,0,0,1,1.4,1.3v.9A1.4,1.4,0,0,1,14.1,17.6Zm-2.2-2.9a.6.6,0,0,0-.6.6v.9c0,.4.2.7.6.7h2.2a.7.7,0,0,0,.7-.7v-.9a.7.7,0,0,0-.7-.6Z"/><path d="M26.2,29.7a5.6,5.6,0,0,1,0-11.2,5.6,5.6,0,0,1,0,11.2Zm0-10.5a4.9,4.9,0,1,0,4.7,4.9A4.8,4.8,0,0,0,26.2,19.2Z"/><path d="M42.2,37.1H10.1c-2.6,0-4.8-1.8-4.8-4V15.2c0-2.2,2.2-4,4.8-4H42.2c2.7,0,4.8,1.8,4.8,4V33.1C47,35.3,44.9,37.1,42.2,37.1ZM10.1,11.9c-2.2,0-4,1.5-4,3.3V33.1c0,1.8,1.8,3.2,4,3.2H42.2c2.3,0,4.1-1.4,4.1-3.2V15.2c0-1.8-1.8-3.3-4.1-3.3Z"/><path d="M15.1,11.9H10.4c-.2,0-.3-.2-.3-.4V8.6c0-.2.1-.4.3-.4h4.7c.2,0,.3.2.3.4v2.9C15.4,11.7,15.3,11.9,15.1,11.9Zm-4.3-.7h3.9V9H10.8Z"/><path d="M31,11.9H21.3c-.2,0-.3-.2-.3-.4V7.9a3.4,3.4,0,0,1,3.3-3.4H28a3.4,3.4,0,0,1,3.4,3.4v3.6A.4.4,0,0,1,31,11.9Zm-9.3-.7h8.9V7.9A2.7,2.7,0,0,0,28,5.2H24.3a2.7,2.7,0,0,0-2.6,2.7Z"/><path d="M29.2,11.9h-6a.4.4,0,0,1-.4-.4V9.7A2.1,2.1,0,0,1,25,7.8h2.3a2.1,2.1,0,0,1,2.2,1.9v1.8C29.5,11.7,29.4,11.9,29.2,11.9Zm-5.7-.7h5.3V9.7c0-.6-.7-1.1-1.5-1.1H25c-.8,0-1.5.5-1.5,1.1Z"/><path d="M41.1,20.7a3.4,3.4,0,0,1-3.4-3.5,3.4,3.4,0,1,1,6.8,0A3.4,3.4,0,0,1,41.1,20.7Zm0-6.3a2.8,2.8,0,0,0-2.7,2.8,2.7,2.7,0,1,0,5.4,0A2.8,2.8,0,0,0,41.1,14.4Z"/><path d="M43.9,33.2h-9a.4.4,0,0,1-.4-.4c0-.2.2-.3.4-.3h9c.2,0,.4.1.4.3A.4.4,0,0,1,43.9,33.2Z"/><path d="M40.4,35.3H34.9a.4.4,0,0,1-.4-.4c0-.2.2-.3.4-.3h5.5c.2,0,.4.1.4.3A.4.4,0,0,1,40.4,35.3Z"/></svg>